<?xml version="1.0" standalone="no"?>
<!DOCTYPE svg PUBLIC "-//W3C//DTD SVG 20010904//EN"
 "http://www.w3.org/TR/2001/REC-SVG-20010904/DTD/svg10.dtd">
<svg version="1.0" xmlns="http://www.w3.org/2000/svg"
 width="512.000000pt" height="512.000000pt" viewBox="0 0 512.000000 512.000000"
 preserveAspectRatio="xMidYMid meet">
<metadata>
Created by potrace 1.11, written by Peter Selinger 2001-2013
</metadata>
<g transform="translate(0.000000,512.000000) scale(0.100000,-0.100000)"
fill="#000000" stroke="none">
<path d="M2445 4792 c-43 -16 -370 -198 -492 -275 -24 -15 -44 -27 -47 -27 -4
0 -114 -63 -476 -273 -124 -72 -295 -171 -380 -220 -169 -97 -184 -106 -280
-162 -83 -48 -140 -107 -176 -181 l-29 -59 0 -1035 0 -1035 26 -56 c50 -106
80 -129 409 -317 19 -11 118 -68 220 -127 102 -59 199 -115 215 -125 17 -10
100 -58 185 -107 85 -49 175 -101 200 -115 25 -14 164 -94 310 -178 146 -85
286 -161 311 -171 33 -13 70 -17 130 -16 98 2 125 14 354 148 113 66 556 322
690 399 17 9 75 43 130 75 101 58 287 166 445 257 47 26 92 53 100 58 8 5 42
25 76 44 74 43 126 98 162 174 l27 57 0 1035 0 1035 -21 45 c-47 99 -89 138
-239 227 -11 6 -105 61 -210 121 -314 182 -508 294 -540 313 -16 11 -37 22
-45 26 -8 4 -58 33 -112 64 -53 31 -120 70 -150 86 -102 57 -463 266 -489 284
-70 48 -214 62 -304 31z"/>
</g>
</svg>
